<?xml version="1.0" standalone="no"?><!DOCTYPE svg PUBLIC "-//W3C//DTD SVG 1.1//EN" "http://www.w3.org/Graphics/SVG/1.1/DTD/svg11.dtd"><svg t="1560330841171" class="icon" style="" viewBox="0 0 2334 1024" version="1.1" xmlns="http://www.w3.org/2000/svg" p-id="6689" xmlns:xlink="http://www.w3.org/1999/xlink" width="145.875" height="64"><defs><style type="text/css"></style></defs><path d="M632.236008 616.434266a292.803504 292.803504 0 0 1-149.700712 41.694421 139.110773 139.110773 0 0 1-123.364476-57.93972 205.699868 205.699868 0 0 1-24.395672-153.027395 276.170092 276.170092 0 0 1 77.068145-158.017418 203.038522 203.038522 0 0 1 147.704703-60.434732 215.846249 215.846249 0 0 1 129.130725 38.367738l21.401658-133.0673a366.82219 366.82219 0 0 0-381.348704 72.743457 426.924254 426.924254 0 0 0-127.522829 250.388303 300.454874 300.454874 0 0 0 40.640971 232.867774 228.265864 228.265864 0 0 0 197.105938 87.38086 387.170398 387.170398 0 0 0 173.209269-34.652942z m485.6402-41.69442a174.318163 174.318163 0 0 0-74.240465-98.358913v-1.718786a229.818316 229.818316 0 0 0 107.3964-66.256426 215.070023 215.070023 0 0 0 53.33781-112.996315q28.221357-175.094389-182.024978-175.094389h-206.420648l-103.792494 645.819962h125.41593l40.530082-250.332858h38.035069a51.286355 51.286355 0 0 1 36.371729 15.025516 202.262296 202.262296 0 0 1 35.928171 67.088097l65.369311 168.052911h144.433465z m-129.241615-349.800665q95.420343 0 81.337387 87.547195a116.766556 116.766556 0 0 1-38.090515 70.248445 108.782518 108.782518 0 0 1-75.404803 28.165912h-61.765405l29.884698-185.961552h63.872304z m930.140425 541.195798L2022.567512 120.315017h-177.423066l-189.953571 389.388186q-18.795756 38.811296-38.811295 91.705547h-2.661346a471.28002 471.28002 0 0 0-7.096923-90.873876L1542.416339 120.315017h-182.468535l-103.792494 645.819962h113.273539l58.715946-365.269738q13.140396-81.670055 21.235323-163.007443h3.437572c1.219784 47.57156 2.772235 76.569142 4.601911 87.159082l76.181029 441.118099h99.800475l216.788809-445.276452a872.588818 872.588818 0 0 0 31.603484-83.167063h3.049459q-18.241309 82.169058-26.890683 136.338538l-62.985189 391.938643h123.918923z" fill="#17A5EE" p-id="6690"></path></svg>